<svg id="Layer_1" data-name="Layer 1" xmlns="http://www.w3.org/2000/svg" viewBox="0 0 443.56 490.85"><defs><style>.cls-1{fill:#62844e;}.cls-2{fill:#4c7139;}.cls-3{fill:#ea772f;}.cls-4{fill:#416d28;}</style></defs><path class="cls-1" d="M468.07,37.1c.45.25.68.14,1,.21a7.94,7.94,0,0,0,.81.06c.52.05,1.08.07,1.54.13.94.15,1.83.24,2.75.43a24.2,24.2,0,0,1,2.44.59c.76.22,1.51.43,2.18.7l1,.38.94.39c.62.26,1.26.58,1.78.85a32.58,32.58,0,0,1,3,1.77,19.59,19.59,0,0,1,4.18,3.76A12.27,12.27,0,0,1,491,48.24l.94,1.83a18.32,18.32,0,0,1,1.87,7,14.23,14.23,0,0,1-.29,3.26,18.33,18.33,0,0,1-1,3.07,32.18,32.18,0,0,1-1.34,2.93c-.47,1-1,1.9-1.44,2.83a25.08,25.08,0,0,1-3.47,5.35,36.46,36.46,0,0,1-5.08,4.79c-1.9,1.51-3.94,3-5.85,4.39a38.93,38.93,0,0,0-5,4.39,16,16,0,0,0-3.05,4.77,11.25,11.25,0,0,0-.79,5.3,17.63,17.63,0,0,0,2,6.09c2.24,4.33,5.95,9.16,7.72,13.47a17.06,17.06,0,0,1,.95,3.13,11.33,11.33,0,0,1,.16,2.88,9.88,9.88,0,0,1-2,5,17.12,17.12,0,0,1-4.81,4.13,32.27,32.27,0,0,1-3.38,1.71c-.59.28-1.27.52-1.9.78s-1.28.52-2,.75c-5.4,2-11.44,3.63-15.56,5.91-.51.29-1,.58-1.46.88-.34.51-.56,1-.84,1.37-.52.8-1,1.56-1.53,2.3L440.83,151q-3,4.34-5.9,8.72c-3.85,5.83-7.33,11.87-11,17.81-1.84,3-3.66,5.94-5.56,8.87-1,1.46-1.93,2.91-2.95,4.34-.5.72-1,1.43-1.56,2.12a11.44,11.44,0,0,1-1.89,2l.18-.21c-1.39,3.06-2.72,6.15-4,9.25s-2.58,6.22-3.75,9.38L402.64,218c-.59,1.58-1.11,3.2-1.67,4.79-1.1,3.2-2.11,6.45-3,9.75L390.54,229c2.74-6.14,5.53-12.26,8.21-18.43l8.1-18.48,1.74-2.06c-.31.23,0,0,.08-.16s.39-.47.61-.74c.44-.57.9-1.22,1.36-1.88.92-1.33,1.84-2.74,2.74-4.16,1.81-2.86,3.57-5.81,5.31-8.78,3.49-5.93,6.82-12,10.06-18.08,1.61-3,3.22-6.09,4.74-9.15.75-1.53,1.5-3.06,2.18-4.56.34-.74.68-1.48.94-2.13a3.78,3.78,0,0,0,.24-.69l.25-1.28c.62-3.44,1.2-6.9,1.84-10.31.36-1.7.7-3.4,1.15-5.07l.64-2.5c.22-.84.51-1.65.75-2.47a49.84,49.84,0,0,1,3.87-9.6c.8-1.56,1.68-3.09,2.57-4.62s1.76-3.08,2.56-4.64a47.83,47.83,0,0,0,5.25-19.91c.43-6.94.77-13.69,2.92-20.1,1.06-3.21,2.4-6.43,2.9-9.7a21.21,21.21,0,0,0,.31-4.8,12.54,12.54,0,0,0-.31-2.2,6,6,0,0,0-.31-.91,2.24,2.24,0,0,0-.17-.32s-.06-.08-.07-.07,0,0,0,0,0,0,.12.26Z" transform="translate(-50.29 -22.42)"/><path class="cls-2" d="M60.17,197.42a77.69,77.69,0,0,1,17.51,2.17c1.25.31,2.51.61,3.66,1l1.77.52c.58.18,1.12.39,1.68.58a62.28,62.28,0,0,1,6.33,2.52,58.78,58.78,0,0,1,10.61,6.27,60.23,60.23,0,0,1,8.51,7.52,56.14,56.14,0,0,1,6.55,8.68c1.91,3.06,3.62,6.23,5.41,9.36s3.63,6.22,5.65,9.22l6.18,8.9c8.27,11.85,16.77,23.56,24.49,35.74q5.8,9.13,11.08,18.57l10.46,18.93,21.23,37.68c7.07,12.56,13.91,25.26,20.2,38.29s12,26.39,17.23,40.05c1.31,3.41,2.59,6.85,3.84,10.29s2.72,6.77,3.1,10.73a36.11,36.11,0,0,1-1.08,13.22,58.59,58.59,0,0,1-2.75,7.91l-1,2.16L239.65,490c-.42.77-.75,1.5-1.29,2.34s-1,1.61-1.57,2.5l-.86.51c-1.07.12-2,.13-2.94.18s-1.8,0-2.67,0l-2.57,0-2.37-.16a59.59,59.59,0,0,1-8.27-1.38A36.11,36.11,0,0,1,205,488.57c-3.3-2.24-5.45-5.15-7.94-7.86s-4.83-5.51-7.2-8.29c-9.5-11.13-18.51-22.54-26.92-34.3s-16.31-23.84-24-36.06L116,365.39l-11.61-18.25q-5.75-9.17-11-18.61c-7-12.6-13.22-25.68-19.67-38.61l-4.86-9.68c-1.66-3.21-3.48-6.32-5.38-9.38s-3.87-6.08-5.64-9.22a56.85,56.85,0,0,1-4.48-9.91,62.74,62.74,0,0,1-3-23.38,60.1,60.1,0,0,1,.82-6.78c.1-.58.18-1.15.3-1.74l.39-1.81c.23-1.18.57-2.43.9-3.67a77.2,77.2,0,0,1,6.47-16.42Z" transform="translate(-50.29 -22.42)"/><path class="cls-3" d="M409.65,193.46a49.55,49.55,0,0,1,7.23,10.95,22.49,22.49,0,0,1,2.32,8,12,12,0,0,1-.16,3.21,21.26,21.26,0,0,1-.84,2.81L416.36,224c-2.53,7.31-5.2,14.54-8.12,21.62a297.79,297.79,0,0,1-20.67,40.6q-5.83,9.75-12,19.31t-12.23,19.17q-12.33,19.09-25.1,37.94c-17,25.1-35.06,49.62-53.54,73.86l-27.87,36.28c-9.13,12.19-18.42,24.28-34.13,32.52l-.86-.51c-.13-17.74,6.15-31.64,12.6-45.43l18.86-41.68c12.67-27.72,25.8-55.18,39.91-82q10.56-20.16,21.64-40,5.53-9.93,11.13-19.82c3.72-6.6,7.5-13.16,11.4-19.66a298.4,298.4,0,0,1,26.06-37.36c4.87-5.91,10-11.67,15.25-17.35l4-4.23a22.5,22.5,0,0,1,2.08-2.06,12.32,12.32,0,0,1,2.76-1.66,22.64,22.64,0,0,1,8.16-1.73,50.29,50.29,0,0,1,13.07,1.21Z" transform="translate(-50.29 -22.42)"/><path class="cls-4" d="M391.62,22.5c.88,0,1.53-.1,2.23-.08a19.71,19.71,0,0,1,5.62.93,21.28,21.28,0,0,1,6.07,3.08,44.92,44.92,0,0,1,9.13,9.19,64.07,64.07,0,0,1,6.22,11.18,66.8,66.8,0,0,1,4.18,12c2,8.21,2.41,16.61,3.44,24.52s2.25,15.66,3.57,23.49c.31,2,.64,3.92.84,5.89s.47,3.94.53,5.92.05,4,.06,5.94a29.34,29.34,0,0,1-.15,3l-.23,3a115.52,115.52,0,0,1-1.49,11.74c-.35,1.93-.78,3.86-1.2,5.78s-.88,3.82-1.4,5.72l-1.56,5.67c-.29,1-.6,1.94-.94,2.9a7.77,7.77,0,0,1-.6,1.4,9,9,0,0,1-1,1.27,9.15,9.15,0,0,0-1.91,2.46c-.35.91-.59,1.85-.94,2.77-.64,1.84-1.43,3.63-2.25,5.42a184.67,184.67,0,0,0-8.8,21.58L403.92,193a38,38,0,0,0,6.95-9.31,64.84,64.84,0,0,0,4.68-10.58,24.55,24.55,0,0,0,.72-2.64,21.58,21.58,0,0,0,.46-2.67c0-.45.09-.9.14-1.34l.05-.67a.8.8,0,0,0-.31-.8,19.55,19.55,0,0,0-4.95-3l-.91-.44-.47-.23-.55-.25-2.2-1c-1.47-.64-3-1.27-4.49-1.87l-2-.83-1.95-.76-1.61-.64-1.25-.51a10.21,10.21,0,0,1-1.46-.7,4.9,4.9,0,0,1-.46-.41c-.55-.52-1.2-1-1.73-1.44-.07,0-.13-.14-.19-.27l-.18-.35-.36-.69c-.26-.46-.44-.91-.66-1.36s-.43-.91-.62-1.35l-.53-1.32a23,23,0,0,1-1.88-9.93,23.44,23.44,0,0,1,.63-4.63c.16-.77.41-1.54.61-2.31s.41-1.52.67-2.28c.51-1.51,1-3.07,1.55-4.59a17,17,0,0,1,2.82-4.65c.64-.8,1.32-1.59,2.07-2.4s1.57-1.63,2.47-2.48l1.35-1.27,1.4-1.3,2.75-2.67a44.84,44.84,0,0,0,5-5.56,19.24,19.24,0,0,0,3.11-5.66,11.94,11.94,0,0,0-1.15-10.43,15.4,15.4,0,0,0-4.09-4.23,23.82,23.82,0,0,0-2.89-1.75A25.36,25.36,0,0,0,401.15,80c-4.57-1.86-9.71-3.09-13.68-4.38a35.09,35.09,0,0,1-5.17-2.08c-.36-.19-.7-.39-1-.59a8.44,8.44,0,0,1-.94-.6c-.6-.41-1.13-.86-1.65-1.29-2.17-1.7-3.83-3.45-4.1-6.24S375.07,58.33,376,54a61.43,61.43,0,0,1,3.53-9.09L381,41.8l1.69-3.57,1-2,.45-1,.54-1.12,1.07-2.3.61-1.25.3-.64.36-.66Z" transform="translate(-50.29 -22.42)"/></svg>